<svg xmlns="http://www.w3.org/2000/svg" version="1.1" xmlns:xlink="http://www.w3.org/1999/xlink" xmlns:svgjs="http://svgjs.com/svgjs" width="1440" height="560" preserveAspectRatio="none" viewBox="0 0 1440 560"><g mask="url(&quot;#SvgjsMask1047&quot;)" fill="none"><rect width="1440" height="560" x="0" y="0" fill="#EFEDED"></rect><path d="M286.09 640.2C400.2 632.31 480.64 413.28 682.95 412.52 885.25 411.76 881.37 482.52 1079.8 482.52 1278.23 482.52 1375.91 412.79 1476.66 412.52" stroke="rgba(219, 214, 214, 0.58)" stroke-width="2"></path><path d="M555.47 592.8C636.14 590.1 610.25 472.63 851.87 464.78 1093.5 456.93 1283.73 217.94 1444.68 212.78" stroke="rgba(219, 214, 214, 0.58)" stroke-width="2"></path><path d="M279.08 619.38C392.16 616.34 487.88 452.21 699.48 452.05 911.09 451.89 909.68 522.05 1119.89 522.05 1330.09 522.05 1433.74 452.29 1540.29 452.05" stroke="rgba(219, 214, 214, 0.58)" stroke-width="2"></path><path d="M634.59 660.62C769.51 577.61 689.49 114.89 940.62 105.76 1191.74 96.63 1395.39 250.36 1552.67 251.36" stroke="rgba(219, 214, 214, 0.58)" stroke-width="2"></path><path d="M742.22 670.5C901.25 627.55 950.82 192.73 1190.07 187.18 1429.31 181.63 1520.19 330.97 1637.91 332.78" stroke="rgba(219, 214, 214, 0.58)" stroke-width="2"></path></g><defs><mask id="SvgjsMask1047"><rect width="1440" height="560" fill="#ffffff"></rect></mask></defs></svg>