<svg xmlns="http://www.w3.org/2000/svg" xmlns:xlink="http://www.w3.org/1999/xlink" width="500" zoomAndPan="magnify" viewBox="0 0 375 374.999991" height="500" preserveAspectRatio="xMidYMid meet" version="1.0"><defs><clipPath id="e170f7b82c"><path d="M 126 90 L 253.523438 90 L 253.523438 265 L 126 265 Z M 126 90 " clip-rule="nonzero"/></clipPath></defs><g clip-path="url(#e170f7b82c)"><path fill="#2b332c" d="M 253.316406 197.917969 C 253.285156 197.207031 253.179688 196.511719 253.007812 195.824219 C 252.832031 195.136719 252.59375 194.472656 252.289062 193.832031 C 251.984375 193.191406 251.621094 192.589844 251.195312 192.019531 C 250.773438 191.453125 250.296875 190.929688 249.769531 190.457031 C 249.242188 189.984375 248.671875 189.566406 248.0625 189.203125 C 247.453125 188.84375 246.8125 188.542969 246.144531 188.308594 C 245.476562 188.074219 244.789062 187.90625 244.089844 187.808594 C 243.386719 187.710938 242.679688 187.679688 241.972656 187.71875 C 241.265625 187.761719 240.566406 187.871094 239.882812 188.046875 C 239.195312 188.226562 238.53125 188.46875 237.894531 188.777344 C 237.257812 189.085938 236.65625 189.457031 236.089844 189.882812 C 235.523438 190.3125 235.007812 190.792969 234.535156 191.324219 C 234.066406 191.851562 233.652344 192.425781 233.296875 193.039062 C 232.9375 193.648438 232.644531 194.292969 232.414062 194.960938 C 232.1875 195.632812 232.023438 196.320312 231.929688 197.023438 C 231.835938 197.722656 231.8125 198.429688 231.855469 199.136719 C 231.898438 199.917969 231.921875 200.714844 231.921875 201.511719 C 231.921875 202.335938 231.898438 203.160156 231.847656 203.980469 C 231.800781 204.804688 231.730469 205.625 231.632812 206.445312 C 231.535156 207.261719 231.414062 208.078125 231.269531 208.886719 C 231.125 209.699219 230.957031 210.503906 230.765625 211.304688 C 230.574219 212.109375 230.359375 212.902344 230.121094 213.691406 C 229.878906 214.480469 229.617188 215.261719 229.332031 216.035156 C 229.046875 216.808594 228.738281 217.570312 228.410156 218.324219 C 228.078125 219.082031 227.726562 219.824219 227.351562 220.558594 C 226.976562 221.292969 226.582031 222.015625 226.164062 222.726562 C 225.746094 223.4375 225.308594 224.136719 224.851562 224.820312 C 224.394531 225.503906 223.914062 226.175781 223.417969 226.832031 C 222.921875 227.488281 222.402344 228.132812 221.867188 228.757812 C 221.332031 229.382812 220.777344 229.992188 220.207031 230.585938 C 219.632812 231.179688 219.046875 231.757812 218.441406 232.316406 C 217.835938 232.875 217.210938 233.414062 216.574219 233.9375 C 215.9375 234.460938 215.285156 234.960938 214.617188 235.445312 C 213.949219 235.929688 213.269531 236.394531 212.574219 236.835938 C 211.878906 237.28125 211.171875 237.703125 210.453125 238.105469 C 209.730469 238.507812 209 238.886719 208.257812 239.246094 C 207.515625 239.605469 206.765625 239.941406 206.003906 240.253906 C 205.242188 240.570312 204.46875 240.859375 203.691406 241.128906 C 202.910156 241.398438 202.125 241.644531 201.332031 241.867188 C 200.539062 242.085938 199.738281 242.285156 198.933594 242.460938 C 198.125 242.636719 197.316406 242.789062 196.503906 242.914062 C 195.6875 243.042969 194.871094 243.144531 194.050781 243.226562 C 193.230469 243.304688 192.40625 243.359375 191.582031 243.390625 C 190.757812 243.421875 189.933594 243.425781 189.109375 243.410156 C 188.285156 243.390625 187.464844 243.347656 186.640625 243.28125 C 185.820312 243.214844 185 243.125 184.183594 243.007812 C 183.371094 242.894531 182.558594 242.753906 181.75 242.59375 C 180.941406 242.429688 180.136719 242.242188 179.339844 242.03125 C 178.542969 241.824219 177.753906 241.589844 176.96875 241.332031 C 176.1875 241.074219 175.414062 240.796875 174.644531 240.492188 C 173.878906 240.191406 173.121094 239.867188 172.375 239.519531 C 171.625 239.171875 170.890625 238.800781 170.164062 238.410156 C 169.4375 238.019531 168.722656 237.609375 168.023438 237.175781 C 167.320312 236.742188 166.632812 236.289062 165.957031 235.816406 C 165.285156 235.34375 164.625 234.851562 163.976562 234.339844 C 163.332031 233.828125 162.703125 233.296875 162.089844 232.746094 C 161.472656 232.195312 160.875 231.628906 160.296875 231.042969 C 159.714844 230.460938 159.152344 229.859375 158.605469 229.238281 C 158.0625 228.621094 157.535156 227.988281 157.027344 227.339844 C 156.519531 226.691406 156.03125 226.027344 155.5625 225.347656 C 155.09375 224.671875 154.644531 223.980469 154.21875 223.277344 C 153.789062 222.570312 153.382812 221.855469 152.996094 221.125 C 152.613281 220.398438 152.25 219.660156 151.90625 218.910156 C 151.566406 218.160156 151.246094 217.398438 150.949219 216.632812 C 150.652344 215.863281 150.378906 215.085938 150.125 214.300781 C 149.875 213.515625 149.648438 212.726562 149.441406 211.925781 C 149.238281 211.128906 149.058594 210.324219 148.902344 209.515625 C 148.742188 208.707031 148.609375 207.894531 148.503906 207.078125 C 148.394531 206.261719 148.308594 205.441406 148.246094 204.621094 C 148.1875 203.796875 148.152344 202.976562 148.140625 202.152344 C 148.128906 201.328125 148.140625 200.503906 148.175781 199.679688 C 148.214844 198.855469 148.273438 198.035156 148.359375 197.214844 C 148.445312 196.398438 148.554688 195.582031 148.6875 194.765625 C 148.820312 193.953125 148.976562 193.144531 149.160156 192.34375 C 149.339844 191.539062 149.542969 190.738281 149.773438 189.949219 C 150 189.15625 150.253906 188.371094 150.527344 187.59375 C 150.800781 186.820312 151.097656 186.050781 151.417969 185.289062 C 151.738281 184.53125 152.082031 183.78125 152.445312 183.042969 C 152.808594 182.304688 153.195312 181.574219 153.601562 180.859375 C 154.011719 180.144531 154.4375 179.4375 154.886719 178.746094 C 155.335938 178.058594 155.804688 177.378906 156.292969 176.714844 C 156.78125 176.050781 157.289062 175.402344 157.816406 174.769531 C 158.34375 174.136719 158.890625 173.519531 159.453125 172.917969 C 160.015625 172.316406 160.597656 171.730469 161.195312 171.164062 C 161.792969 170.597656 162.40625 170.050781 163.039062 169.519531 C 163.667969 168.988281 164.3125 168.476562 164.976562 167.984375 C 165.636719 167.488281 166.308594 167.015625 167 166.5625 C 167.6875 166.109375 168.390625 165.679688 169.101562 165.265625 C 169.816406 164.855469 170.542969 164.464844 171.28125 164.097656 C 172.015625 163.726562 172.765625 163.382812 173.523438 163.058594 C 174.28125 162.730469 175.046875 162.429688 175.824219 162.152344 C 176.597656 161.871094 177.382812 161.613281 178.171875 161.382812 C 178.960938 161.148438 179.757812 160.9375 180.5625 160.753906 C 181.363281 160.566406 182.171875 160.40625 182.984375 160.265625 C 183.796875 160.128906 184.613281 160.011719 185.433594 159.921875 C 186.253906 159.832031 187.074219 159.765625 187.898438 159.722656 C 188.722656 159.683594 189.542969 159.664062 190.367188 159.671875 C 191.195312 159.679688 192.015625 159.710938 192.839844 159.765625 C 193.660156 159.820312 194.480469 159.898438 195.300781 160.003906 C 196.117188 160.105469 196.929688 160.234375 197.742188 160.386719 C 198.550781 160.539062 199.355469 160.714844 200.15625 160.914062 C 200.957031 161.113281 201.75 161.335938 202.535156 161.582031 C 203.324219 161.828125 204.101562 162.09375 204.875 162.386719 C 205.644531 162.679688 206.40625 162.992188 207.160156 163.332031 C 207.910156 163.667969 208.652344 164.027344 209.382812 164.40625 C 210.113281 164.789062 210.832031 165.191406 211.539062 165.613281 C 212.25 166.035156 212.941406 166.480469 213.625 166.945312 C 214.304688 167.40625 214.972656 167.890625 215.625 168.394531 C 216.277344 168.898438 216.914062 169.421875 217.535156 169.960938 C 218.15625 170.503906 218.761719 171.0625 219.351562 171.640625 C 219.941406 172.214844 220.511719 172.808594 221.066406 173.417969 C 221.617188 174.03125 222.152344 174.65625 222.671875 175.296875 C 223.1875 175.941406 223.683594 176.597656 224.164062 177.269531 C 224.570312 177.84375 225.035156 178.371094 225.546875 178.855469 C 226.058594 179.339844 226.617188 179.769531 227.214844 180.144531 C 227.8125 180.515625 228.441406 180.828125 229.101562 181.082031 C 229.761719 181.332031 230.4375 181.515625 231.132812 181.632812 C 231.828125 181.75 232.53125 181.796875 233.234375 181.777344 C 233.941406 181.753906 234.636719 181.667969 235.324219 181.507812 C 236.011719 181.351562 236.679688 181.128906 237.320312 180.839844 C 237.964844 180.550781 238.574219 180.199219 239.148438 179.792969 C 239.726562 179.382812 240.253906 178.921875 240.738281 178.410156 C 241.222656 177.894531 241.652344 177.339844 242.027344 176.742188 C 242.402344 176.144531 242.714844 175.515625 242.964844 174.859375 C 243.214844 174.199219 243.402344 173.519531 243.519531 172.824219 C 243.636719 172.128906 243.683594 171.429688 243.664062 170.726562 C 243.644531 170.019531 243.554688 169.324219 243.398438 168.636719 C 243.238281 167.949219 243.015625 167.285156 242.726562 166.640625 C 242.4375 165.996094 242.089844 165.386719 241.679688 164.8125 C 239.425781 161.652344 236.902344 158.722656 234.113281 156.023438 C 231.320312 153.324219 228.304688 150.902344 225.070312 148.757812 C 221.835938 146.609375 218.429688 144.773438 214.859375 143.253906 C 211.285156 141.730469 207.605469 140.542969 203.816406 139.695312 L 221.285156 104.265625 C 221.5625 103.703125 221.785156 103.117188 221.945312 102.511719 C 222.109375 101.90625 222.210938 101.289062 222.25 100.664062 C 222.292969 100.035156 222.273438 99.414062 222.191406 98.789062 C 222.109375 98.167969 221.96875 97.558594 221.765625 96.964844 C 221.566406 96.371094 221.308594 95.804688 220.992188 95.257812 C 220.679688 94.714844 220.316406 94.207031 219.902344 93.734375 C 219.488281 93.265625 219.03125 92.835938 218.535156 92.457031 C 218.039062 92.074219 217.507812 91.742188 216.945312 91.464844 C 216.382812 91.1875 215.796875 90.96875 215.191406 90.804688 C 214.585938 90.640625 213.96875 90.539062 213.339844 90.5 C 212.714844 90.457031 212.089844 90.476562 211.46875 90.558594 C 210.847656 90.640625 210.238281 90.78125 209.644531 90.984375 C 209.046875 91.1875 208.480469 91.441406 207.9375 91.757812 C 207.390625 92.070312 206.882812 92.433594 206.410156 92.847656 C 205.941406 93.261719 205.511719 93.714844 205.128906 94.214844 C 204.746094 94.710938 204.417969 95.242188 204.140625 95.804688 L 179.089844 139.128906 L 178.699219 139.203125 L 187.277344 105.703125 C 187.480469 105.09375 187.617188 104.46875 187.695312 103.832031 C 187.769531 103.195312 187.78125 102.558594 187.730469 101.917969 C 187.675781 101.277344 187.5625 100.648438 187.382812 100.035156 C 187.203125 99.417969 186.964844 98.824219 186.664062 98.257812 C 186.367188 97.6875 186.015625 97.15625 185.609375 96.660156 C 185.203125 96.164062 184.75 95.710938 184.253906 95.304688 C 183.757812 94.898438 183.222656 94.546875 182.65625 94.246094 C 182.089844 93.949219 181.496094 93.707031 180.878906 93.53125 C 180.261719 93.351562 179.636719 93.234375 178.996094 93.179688 C 178.355469 93.128906 177.71875 93.136719 177.078125 93.214844 C 176.441406 93.289062 175.820312 93.429688 175.210938 93.628906 C 174.597656 93.832031 174.015625 94.089844 173.457031 94.410156 C 172.902344 94.726562 172.382812 95.097656 171.898438 95.523438 C 171.417969 95.945312 170.980469 96.414062 170.59375 96.925781 C 170.207031 97.433594 169.871094 97.980469 169.59375 98.558594 C 169.316406 99.136719 169.097656 99.734375 168.941406 100.359375 L 152.996094 149.085938 L 152.996094 115.867188 C 153.027344 115.230469 153 114.597656 152.90625 113.96875 C 152.816406 113.339844 152.660156 112.726562 152.445312 112.125 C 152.230469 111.527344 151.957031 110.953125 151.628906 110.410156 C 151.300781 109.867188 150.917969 109.359375 150.488281 108.890625 C 150.058594 108.421875 149.585938 108 149.070312 107.625 C 148.554688 107.25 148.007812 106.933594 147.429688 106.667969 C 146.847656 106.402344 146.25 106.199219 145.628906 106.050781 C 145.007812 105.90625 144.382812 105.824219 143.746094 105.804688 C 143.109375 105.785156 142.476562 105.828125 141.847656 105.9375 C 141.21875 106.042969 140.609375 106.210938 140.015625 106.441406 C 139.421875 106.667969 138.855469 106.953125 138.316406 107.296875 C 137.78125 107.636719 137.28125 108.03125 136.824219 108.472656 C 136.367188 108.914062 135.953125 109.394531 135.59375 109.917969 C 135.230469 110.441406 134.921875 110.996094 134.671875 111.582031 C 134.421875 112.167969 134.230469 112.769531 134.097656 113.394531 C 133.96875 114.015625 133.898438 114.644531 133.894531 115.28125 L 132.027344 175.957031 C 131.550781 177.03125 131.109375 178.117188 130.695312 179.21875 C 130.28125 180.316406 129.898438 181.425781 129.546875 182.546875 C 129.195312 183.667969 128.875 184.796875 128.585938 185.933594 C 128.296875 187.070312 128.039062 188.21875 127.816406 189.371094 C 127.589844 190.523438 127.398438 191.679688 127.234375 192.84375 C 127.074219 194.003906 126.945312 195.171875 126.851562 196.34375 C 126.753906 197.511719 126.691406 198.683594 126.660156 199.859375 C 126.628906 201.03125 126.632812 202.207031 126.664062 203.378906 C 126.699219 204.554688 126.765625 205.726562 126.867188 206.894531 C 126.964844 208.066406 127.097656 209.230469 127.261719 210.394531 C 127.425781 211.554688 127.625 212.714844 127.851562 213.863281 C 128.082031 215.015625 128.34375 216.160156 128.636719 217.296875 C 128.925781 218.433594 129.25 219.5625 129.605469 220.683594 C 129.960938 221.800781 130.347656 222.910156 130.765625 224.007812 C 131.179688 225.105469 131.628906 226.191406 132.105469 227.265625 C 132.582031 228.335938 133.089844 229.394531 133.625 230.441406 C 134.164062 231.484375 134.726562 232.515625 135.320312 233.527344 C 135.914062 234.539062 136.535156 235.535156 137.183594 236.515625 C 137.832031 237.496094 138.507812 238.453125 139.210938 239.394531 C 139.910156 240.335938 140.640625 241.257812 141.394531 242.160156 C 142.148438 243.058594 142.925781 243.9375 143.726562 244.796875 C 144.527344 245.65625 145.355469 246.488281 146.203125 247.300781 C 147.050781 248.113281 147.921875 248.898438 148.816406 249.664062 C 149.707031 250.425781 150.621094 251.164062 151.554688 251.878906 C 152.488281 252.589844 153.441406 253.277344 154.414062 253.9375 C 155.382812 254.59375 156.375 255.226562 157.378906 255.832031 C 158.386719 256.4375 159.410156 257.011719 160.449219 257.5625 C 161.488281 258.109375 162.542969 258.628906 163.609375 259.117188 C 164.675781 259.605469 165.757812 260.066406 166.851562 260.496094 C 167.945312 260.925781 169.046875 261.324219 170.164062 261.691406 C 171.28125 262.058594 172.402344 262.394531 173.539062 262.699219 C 174.671875 263.007812 175.816406 263.28125 176.964844 263.523438 C 178.113281 263.765625 179.269531 263.972656 180.429688 264.152344 C 181.589844 264.328125 182.757812 264.476562 183.925781 264.589844 C 185.09375 264.699219 186.265625 264.78125 187.441406 264.828125 C 188.613281 264.878906 189.789062 264.894531 190.960938 264.875 C 192.136719 264.859375 193.308594 264.808594 194.480469 264.726562 C 195.652344 264.644531 196.820312 264.527344 197.988281 264.382812 C 199.152344 264.234375 200.3125 264.054688 201.46875 263.84375 C 202.625 263.628906 203.773438 263.386719 204.914062 263.109375 C 206.054688 262.835938 207.1875 262.527344 208.3125 262.1875 C 209.4375 261.851562 210.554688 261.480469 211.65625 261.078125 C 212.761719 260.679688 213.855469 260.25 214.933594 259.785156 C 216.015625 259.324219 217.082031 258.835938 218.132812 258.3125 C 219.1875 257.792969 220.222656 257.242188 221.246094 256.664062 C 222.269531 256.085938 223.273438 255.480469 224.261719 254.847656 C 225.25 254.214844 226.222656 253.550781 227.171875 252.863281 C 228.125 252.175781 229.058594 251.460938 229.96875 250.722656 C 230.882812 249.980469 231.773438 249.21875 232.640625 248.429688 C 233.511719 247.640625 234.359375 246.824219 235.183594 245.988281 C 236.007812 245.152344 236.808594 244.292969 237.585938 243.414062 C 238.359375 242.53125 239.113281 241.632812 239.839844 240.707031 C 240.566406 239.785156 241.265625 238.84375 241.941406 237.882812 C 242.613281 236.921875 243.261719 235.941406 243.878906 234.945312 C 244.5 233.945312 245.09375 232.933594 245.65625 231.902344 C 246.21875 230.871094 246.753906 229.824219 247.257812 228.765625 C 247.761719 227.707031 248.238281 226.632812 248.683594 225.546875 C 249.128906 224.460938 249.542969 223.363281 249.929688 222.253906 C 250.3125 221.144531 250.664062 220.023438 250.988281 218.894531 C 251.308594 217.765625 251.601562 216.628906 251.859375 215.484375 C 252.117188 214.335938 252.34375 213.1875 252.539062 212.027344 C 252.734375 210.871094 252.898438 209.707031 253.027344 208.539062 C 253.15625 207.375 253.253906 206.203125 253.320312 205.03125 C 253.382812 203.859375 253.417969 202.6875 253.417969 201.511719 C 253.417969 200.308594 253.390625 199.109375 253.316406 197.917969 Z M 253.316406 197.917969 " fill-opacity="1" fill-rule="nonzero"/></g><path fill="#00b074" d="M 190.019531 163.097656 C 187.222656 163.105469 184.457031 163.410156 181.726562 164.023438 L 186.726562 172.1875 L 176.851562 223.648438 L 190.027344 235.582031 L 203.203125 223.648438 L 193.328125 172.1875 L 198.328125 164.023438 C 195.59375 163.410156 192.824219 163.101562 190.019531 163.097656 Z M 190.019531 163.097656 " fill-opacity="1" fill-rule="nonzero"/></svg>