<svg xmlns="http://www.w3.org/2000/svg" xmlns:xlink="http://www.w3.org/1999/xlink" width="300" zoomAndPan="magnify" viewBox="0 0 375 374.999991" height="300" preserveAspectRatio="xMidYMid meet" version="1.0"><defs><g/></defs><g fill="#00b074" fill-opacity="1"><g transform="translate(126.33984, 191.828001)"><g><path d="M 0.859375 9.203125 C -0.578125 9.203125 -1.945312 9.0625 -3.25 8.78125 L -3.25 2.625 C -2.820312 2.707031 -2.363281 2.796875 -1.875 2.890625 C -1.394531 2.992188 -0.878906 3.046875 -0.328125 3.046875 C 0.984375 3.046875 1.921875 2.648438 2.484375 1.859375 C 3.046875 1.078125 3.328125 -0.269531 3.328125 -2.1875 L 3.328125 -29.296875 L 11.28125 -29.296875 L 11.28125 -2.859375 C 11.28125 1.109375 10.410156 4.109375 8.671875 6.140625 C 6.941406 8.179688 4.335938 9.203125 0.859375 9.203125 Z M 0.859375 9.203125 "/></g></g></g><g fill="#00b074" fill-opacity="1"><g transform="translate(140.787673, 191.828001)"><g><path d="M 24.390625 -11.40625 C 24.390625 -7.6875 23.390625 -4.785156 21.390625 -2.703125 C 19.398438 -0.628906 16.601562 0.40625 13 0.40625 C 9.5625 0.40625 6.820312 -0.65625 4.78125 -2.78125 C 2.738281 -4.90625 1.71875 -7.78125 1.71875 -11.40625 C 1.71875 -15.101562 2.71875 -17.976562 4.71875 -20.03125 C 6.71875 -22.082031 9.519531 -23.109375 13.125 -23.109375 C 15.351562 -23.109375 17.320312 -22.632812 19.03125 -21.6875 C 20.75 -20.738281 22.070312 -19.378906 23 -17.609375 C 23.925781 -15.835938 24.390625 -13.769531 24.390625 -11.40625 Z M 9.6875 -11.40625 C 9.6875 -9.457031 9.945312 -7.96875 10.46875 -6.9375 C 10.988281 -5.914062 11.863281 -5.40625 13.09375 -5.40625 C 14.300781 -5.40625 15.15625 -5.914062 15.65625 -6.9375 C 16.164062 -7.96875 16.421875 -9.457031 16.421875 -11.40625 C 16.421875 -13.34375 16.164062 -14.804688 15.65625 -15.796875 C 15.144531 -16.785156 14.273438 -17.28125 13.046875 -17.28125 C 11.847656 -17.28125 10.988281 -16.785156 10.46875 -15.796875 C 9.945312 -14.816406 9.6875 -13.351562 9.6875 -11.40625 Z M 9.6875 -11.40625 "/></g></g></g><g fill="#00b074" fill-opacity="1"><g transform="translate(166.938051, 191.828001)"><g><path d="M 16.578125 -23.109375 C 19.046875 -23.109375 21.003906 -22.070312 22.453125 -20 C 23.898438 -17.925781 24.625 -15.0625 24.625 -11.40625 C 24.625 -7.71875 23.894531 -4.828125 22.4375 -2.734375 C 20.976562 -0.640625 18.941406 0.40625 16.328125 0.40625 C 15.492188 0.40625 14.75 0.3125 14.09375 0.125 C 13.4375 -0.0507812 12.847656 -0.300781 12.328125 -0.625 C 11.816406 -0.945312 11.222656 -1.476562 10.546875 -2.21875 L 10.0625 -2.21875 L 8.8125 0 L 2.703125 0 L 2.703125 -31.1875 L 10.546875 -31.1875 L 10.546875 -24.125 C 10.546875 -23.289062 10.453125 -21.84375 10.265625 -19.78125 L 10.546875 -19.78125 C 11.304688 -20.957031 12.179688 -21.804688 13.171875 -22.328125 C 14.171875 -22.847656 15.304688 -23.109375 16.578125 -23.109375 Z M 13.703125 -16.953125 C 12.609375 -16.953125 11.804688 -16.570312 11.296875 -15.8125 C 10.796875 -15.050781 10.546875 -13.851562 10.546875 -12.21875 L 10.546875 -11.125 C 10.546875 -9.269531 10.796875 -7.9375 11.296875 -7.125 C 11.804688 -6.3125 12.640625 -5.90625 13.796875 -5.90625 C 14.710938 -5.90625 15.414062 -6.375 15.90625 -7.3125 C 16.40625 -8.257812 16.65625 -9.648438 16.65625 -11.484375 C 16.65625 -15.128906 15.671875 -16.953125 13.703125 -16.953125 Z M 13.703125 -16.953125 "/></g></g></g><g fill="#2b332c" fill-opacity="1"><g transform="translate(193.324214, 191.828001)"><g><path d="M 10.578125 0 L 2.75 0 L 2.75 -22.703125 L 10.578125 -22.703125 Z M 2.546875 -28.359375 C 2.546875 -29.535156 2.875 -30.410156 3.53125 -30.984375 C 4.1875 -31.554688 5.238281 -31.84375 6.6875 -31.84375 C 8.144531 -31.84375 9.207031 -31.546875 9.875 -30.953125 C 10.550781 -30.367188 10.890625 -29.503906 10.890625 -28.359375 C 10.890625 -26.054688 9.488281 -24.90625 6.6875 -24.90625 C 3.925781 -24.90625 2.546875 -26.054688 2.546875 -28.359375 Z M 2.546875 -28.359375 "/></g></g></g><g fill="#2b332c" fill-opacity="1"><g transform="translate(206.669924, 191.828001)"><g><path d="M 16.578125 -16.828125 L 11.75 -16.828125 L 11.75 0 L 3.90625 0 L 3.90625 -16.828125 L 0.90625 -16.828125 L 0.90625 -20.6875 L 4.0625 -22.609375 L 4.0625 -22.984375 C 4.0625 -25.984375 4.671875 -28.132812 5.890625 -29.4375 C 7.117188 -30.75 9.082031 -31.40625 11.78125 -31.40625 C 12.820312 -31.40625 13.804688 -31.320312 14.734375 -31.15625 C 15.671875 -31 16.753906 -30.722656 17.984375 -30.328125 L 16.296875 -25.25 C 15.328125 -25.519531 14.382812 -25.65625 13.46875 -25.65625 C 12.863281 -25.65625 12.425781 -25.46875 12.15625 -25.09375 C 11.882812 -24.726562 11.75 -24.132812 11.75 -23.3125 L 11.75 -22.703125 L 16.578125 -22.703125 Z M 16.578125 -16.828125 "/></g></g></g><g fill="#2b332c" fill-opacity="1"><g transform="translate(223.622583, 191.828001)"><g><path d="M -0.046875 -22.703125 L 8.21875 -22.703125 L 12.0625 -9.6875 C 12.25 -9 12.378906 -8.175781 12.453125 -7.21875 L 12.609375 -7.21875 C 12.710938 -8.132812 12.875 -8.941406 13.09375 -9.640625 L 17.03125 -22.703125 L 25.03125 -22.703125 L 16.046875 1.4375 C 14.898438 4.507812 13.488281 6.679688 11.8125 7.953125 C 10.132812 9.222656 7.945312 9.859375 5.25 9.859375 C 4.207031 9.859375 3.140625 9.742188 2.046875 9.515625 L 2.046875 3.359375 C 2.753906 3.523438 3.5625 3.609375 4.46875 3.609375 C 5.164062 3.609375 5.773438 3.472656 6.296875 3.203125 C 6.816406 2.941406 7.269531 2.566406 7.65625 2.078125 C 8.039062 1.585938 8.457031 0.785156 8.90625 -0.328125 Z M -0.046875 -22.703125 "/></g></g></g><g fill="#2b332c" fill-opacity="1"><g transform="translate(119.972438, 219.705415)"><g><path d="M 3.15625 -3.84375 L 5.625 -8.484375 L 6.265625 -8.484375 L 3.4375 -3.28125 L 3.4375 0 L 2.828125 0 L 2.828125 -3.234375 L 0 -8.484375 L 0.671875 -8.484375 Z M 3.15625 -3.84375 "/></g></g></g><g fill="#2b332c" fill-opacity="1"><g transform="translate(126.239152, 219.705415)"><g><path d="M 6.265625 -3.15625 C 6.265625 -2.132812 6.015625 -1.332031 5.515625 -0.75 C 5.015625 -0.175781 4.328125 0.109375 3.453125 0.109375 C 2.898438 0.109375 2.410156 -0.0195312 1.984375 -0.28125 C 1.566406 -0.550781 1.242188 -0.9375 1.015625 -1.4375 C 0.796875 -1.9375 0.6875 -2.507812 0.6875 -3.15625 C 0.6875 -4.1875 0.9375 -4.988281 1.4375 -5.5625 C 1.9375 -6.132812 2.617188 -6.421875 3.484375 -6.421875 C 4.359375 -6.421875 5.039062 -6.128906 5.53125 -5.546875 C 6.019531 -4.960938 6.265625 -4.164062 6.265625 -3.15625 Z M 1.296875 -3.15625 C 1.296875 -2.289062 1.484375 -1.613281 1.859375 -1.125 C 2.242188 -0.644531 2.785156 -0.40625 3.484375 -0.40625 C 4.171875 -0.40625 4.707031 -0.644531 5.09375 -1.125 C 5.476562 -1.613281 5.671875 -2.289062 5.671875 -3.15625 C 5.671875 -4.03125 5.476562 -4.707031 5.09375 -5.1875 C 4.707031 -5.664062 4.164062 -5.90625 3.46875 -5.90625 C 2.769531 -5.90625 2.234375 -5.664062 1.859375 -5.1875 C 1.484375 -4.707031 1.296875 -4.03125 1.296875 -3.15625 Z M 1.296875 -3.15625 "/></g></g></g><g fill="#2b332c" fill-opacity="1"><g transform="translate(133.195726, 219.705415)"><g><path d="M 1.546875 -6.296875 L 1.546875 -2.21875 C 1.546875 -1.582031 1.679688 -1.117188 1.953125 -0.828125 C 2.222656 -0.546875 2.632812 -0.40625 3.1875 -0.40625 C 3.9375 -0.40625 4.488281 -0.59375 4.84375 -0.96875 C 5.195312 -1.351562 5.375 -1.972656 5.375 -2.828125 L 5.375 -6.296875 L 5.953125 -6.296875 L 5.953125 0 L 5.46875 0 L 5.359375 -0.875 L 5.328125 -0.875 C 4.910156 -0.21875 4.179688 0.109375 3.140625 0.109375 C 1.703125 0.109375 0.984375 -0.65625 0.984375 -2.1875 L 0.984375 -6.296875 Z M 1.546875 -6.296875 "/></g></g></g><g fill="#2b332c" fill-opacity="1"><g transform="translate(140.198678, 219.705415)"><g><path d="M 3.53125 -6.421875 C 3.800781 -6.421875 4.085938 -6.394531 4.390625 -6.34375 L 4.28125 -5.796875 C 4.019531 -5.859375 3.75 -5.890625 3.46875 -5.890625 C 2.925781 -5.890625 2.484375 -5.660156 2.140625 -5.203125 C 1.796875 -4.742188 1.625 -4.171875 1.625 -3.484375 L 1.625 0 L 1.0625 0 L 1.0625 -6.296875 L 1.546875 -6.296875 L 1.59375 -5.171875 L 1.640625 -5.171875 C 1.898438 -5.628906 2.175781 -5.953125 2.46875 -6.140625 C 2.757812 -6.328125 3.113281 -6.421875 3.53125 -6.421875 Z M 3.53125 -6.421875 "/></g></g></g><g fill="#2b332c" fill-opacity="1"><g transform="translate(144.819003, 219.705415)"><g/></g></g><g fill="#2b332c" fill-opacity="1"><g transform="translate(147.903084, 219.705415)"><g><path d="M 7.640625 -4.3125 C 7.640625 -2.894531 7.265625 -1.820312 6.515625 -1.09375 C 5.765625 -0.363281 4.671875 0 3.234375 0 L 1.203125 0 L 1.203125 -8.484375 L 3.484375 -8.484375 C 4.835938 -8.484375 5.867188 -8.128906 6.578125 -7.421875 C 7.285156 -6.710938 7.640625 -5.675781 7.640625 -4.3125 Z M 7 -4.296875 C 7 -5.515625 6.6875 -6.425781 6.0625 -7.03125 C 5.445312 -7.644531 4.539062 -7.953125 3.34375 -7.953125 L 1.796875 -7.953125 L 1.796875 -0.515625 L 3.1875 -0.515625 C 5.726562 -0.515625 7 -1.773438 7 -4.296875 Z M 7 -4.296875 "/></g></g></g><g fill="#2b332c" fill-opacity="1"><g transform="translate(156.285756, 219.705415)"><g><path d="M 3.53125 -6.421875 C 3.800781 -6.421875 4.085938 -6.394531 4.390625 -6.34375 L 4.28125 -5.796875 C 4.019531 -5.859375 3.75 -5.890625 3.46875 -5.890625 C 2.925781 -5.890625 2.484375 -5.660156 2.140625 -5.203125 C 1.796875 -4.742188 1.625 -4.171875 1.625 -3.484375 L 1.625 0 L 1.0625 0 L 1.0625 -6.296875 L 1.546875 -6.296875 L 1.59375 -5.171875 L 1.640625 -5.171875 C 1.898438 -5.628906 2.175781 -5.953125 2.46875 -6.140625 C 2.757812 -6.328125 3.113281 -6.421875 3.53125 -6.421875 Z M 3.53125 -6.421875 "/></g></g></g><g fill="#2b332c" fill-opacity="1"><g transform="translate(160.906081, 219.705415)"><g><path d="M 3.59375 0.109375 C 2.6875 0.109375 1.972656 -0.171875 1.453125 -0.734375 C 0.941406 -1.296875 0.6875 -2.085938 0.6875 -3.109375 C 0.6875 -4.109375 0.929688 -4.910156 1.421875 -5.515625 C 1.921875 -6.117188 2.59375 -6.421875 3.4375 -6.421875 C 4.175781 -6.421875 4.757812 -6.160156 5.1875 -5.640625 C 5.613281 -5.128906 5.828125 -4.425781 5.828125 -3.53125 L 5.828125 -3.078125 L 1.296875 -3.078125 C 1.296875 -2.210938 1.492188 -1.550781 1.890625 -1.09375 C 2.296875 -0.632812 2.863281 -0.40625 3.59375 -0.40625 C 3.957031 -0.40625 4.273438 -0.429688 4.546875 -0.484375 C 4.816406 -0.535156 5.160156 -0.644531 5.578125 -0.8125 L 5.578125 -0.28125 C 5.222656 -0.125 4.894531 -0.0195312 4.59375 0.03125 C 4.289062 0.0820312 3.957031 0.109375 3.59375 0.109375 Z M 3.4375 -5.921875 C 2.820312 -5.921875 2.332031 -5.71875 1.96875 -5.3125 C 1.601562 -4.914062 1.390625 -4.335938 1.328125 -3.578125 L 5.21875 -3.578125 C 5.21875 -4.304688 5.054688 -4.878906 4.734375 -5.296875 C 4.421875 -5.710938 3.988281 -5.921875 3.4375 -5.921875 Z M 3.4375 -5.921875 "/></g></g></g><g fill="#2b332c" fill-opacity="1"><g transform="translate(167.422072, 219.705415)"><g><path d="M 4.875 0 L 4.734375 -1 L 4.6875 -1 C 4.375 -0.59375 4.050781 -0.304688 3.71875 -0.140625 C 3.382812 0.0234375 2.988281 0.109375 2.53125 0.109375 C 1.90625 0.109375 1.421875 -0.046875 1.078125 -0.359375 C 0.734375 -0.671875 0.5625 -1.109375 0.5625 -1.671875 C 0.5625 -2.285156 0.816406 -2.765625 1.328125 -3.109375 C 1.847656 -3.453125 2.59375 -3.628906 3.5625 -3.640625 L 4.765625 -3.6875 L 4.765625 -4.09375 C 4.765625 -4.695312 4.640625 -5.148438 4.390625 -5.453125 C 4.148438 -5.765625 3.757812 -5.921875 3.21875 -5.921875 C 2.632812 -5.921875 2.03125 -5.753906 1.40625 -5.421875 L 1.1875 -5.921875 C 1.882812 -6.242188 2.566406 -6.40625 3.234375 -6.40625 C 3.929688 -6.40625 4.453125 -6.222656 4.796875 -5.859375 C 5.140625 -5.503906 5.3125 -4.945312 5.3125 -4.1875 L 5.3125 0 Z M 2.5625 -0.40625 C 3.238281 -0.40625 3.769531 -0.597656 4.15625 -0.984375 C 4.539062 -1.367188 4.734375 -1.90625 4.734375 -2.59375 L 4.734375 -3.203125 L 3.640625 -3.15625 C 2.753906 -3.113281 2.117188 -2.972656 1.734375 -2.734375 C 1.359375 -2.503906 1.171875 -2.144531 1.171875 -1.65625 C 1.171875 -1.257812 1.289062 -0.953125 1.53125 -0.734375 C 1.78125 -0.515625 2.125 -0.40625 2.5625 -0.40625 Z M 2.5625 -0.40625 "/></g></g></g><g fill="#2b332c" fill-opacity="1"><g transform="translate(173.711975, 219.705415)"><g><path d="M 8.921875 0 L 8.921875 -4.140625 C 8.921875 -4.753906 8.800781 -5.203125 8.5625 -5.484375 C 8.320312 -5.765625 7.957031 -5.90625 7.46875 -5.90625 C 6.820312 -5.90625 6.34375 -5.722656 6.03125 -5.359375 C 5.726562 -5.003906 5.578125 -4.445312 5.578125 -3.6875 L 5.578125 0 L 4.984375 0 L 4.984375 -4.3125 C 4.984375 -5.375 4.5 -5.90625 3.53125 -5.90625 C 2.863281 -5.90625 2.378906 -5.710938 2.078125 -5.328125 C 1.773438 -4.941406 1.625 -4.328125 1.625 -3.484375 L 1.625 0 L 1.0625 0 L 1.0625 -6.296875 L 1.53125 -6.296875 L 1.65625 -5.4375 L 1.6875 -5.4375 C 1.863281 -5.75 2.109375 -5.988281 2.421875 -6.15625 C 2.742188 -6.332031 3.097656 -6.421875 3.484375 -6.421875 C 4.484375 -6.421875 5.125 -6.050781 5.40625 -5.3125 L 5.421875 -5.3125 C 5.628906 -5.664062 5.90625 -5.9375 6.25 -6.125 C 6.59375 -6.320312 6.988281 -6.421875 7.4375 -6.421875 C 8.125 -6.421875 8.640625 -6.238281 8.984375 -5.875 C 9.328125 -5.507812 9.5 -4.925781 9.5 -4.125 L 9.5 0 Z M 8.921875 0 "/></g></g></g><g fill="#2b332c" fill-opacity="1"><g transform="translate(184.193214, 219.705415)"><g/></g></g><g fill="#2b332c" fill-opacity="1"><g transform="translate(187.277295, 219.705415)"><g><path d="M -0.1875 2.140625 C -0.539062 2.140625 -0.832031 2.085938 -1.0625 1.984375 L -1.0625 1.46875 C -0.757812 1.550781 -0.472656 1.59375 -0.203125 1.59375 C 0.734375 1.59375 1.203125 1.082031 1.203125 0.0625 L 1.203125 -8.484375 L 1.796875 -8.484375 L 1.796875 0 C 1.796875 1.425781 1.132812 2.140625 -0.1875 2.140625 Z M -0.1875 2.140625 "/></g></g></g><g fill="#2b332c" fill-opacity="1"><g transform="translate(190.210651, 219.705415)"><g><path d="M 6.265625 -3.15625 C 6.265625 -2.132812 6.015625 -1.332031 5.515625 -0.75 C 5.015625 -0.175781 4.328125 0.109375 3.453125 0.109375 C 2.898438 0.109375 2.410156 -0.0195312 1.984375 -0.28125 C 1.566406 -0.550781 1.242188 -0.9375 1.015625 -1.4375 C 0.796875 -1.9375 0.6875 -2.507812 0.6875 -3.15625 C 0.6875 -4.1875 0.9375 -4.988281 1.4375 -5.5625 C 1.9375 -6.132812 2.617188 -6.421875 3.484375 -6.421875 C 4.359375 -6.421875 5.039062 -6.128906 5.53125 -5.546875 C 6.019531 -4.960938 6.265625 -4.164062 6.265625 -3.15625 Z M 1.296875 -3.15625 C 1.296875 -2.289062 1.484375 -1.613281 1.859375 -1.125 C 2.242188 -0.644531 2.785156 -0.40625 3.484375 -0.40625 C 4.171875 -0.40625 4.707031 -0.644531 5.09375 -1.125 C 5.476562 -1.613281 5.671875 -2.289062 5.671875 -3.15625 C 5.671875 -4.03125 5.476562 -4.707031 5.09375 -5.1875 C 4.707031 -5.664062 4.164062 -5.90625 3.46875 -5.90625 C 2.769531 -5.90625 2.234375 -5.664062 1.859375 -5.1875 C 1.484375 -4.707031 1.296875 -4.03125 1.296875 -3.15625 Z M 1.296875 -3.15625 "/></g></g></g><g fill="#2b332c" fill-opacity="1"><g transform="translate(197.167225, 219.705415)"><g><path d="M 3.71875 -6.421875 C 4.59375 -6.421875 5.253906 -6.144531 5.703125 -5.59375 C 6.148438 -5.039062 6.375 -4.226562 6.375 -3.15625 C 6.375 -2.113281 6.140625 -1.304688 5.671875 -0.734375 C 5.203125 -0.171875 4.539062 0.109375 3.6875 0.109375 C 3.238281 0.109375 2.832031 0.0195312 2.46875 -0.15625 C 2.113281 -0.34375 1.832031 -0.609375 1.625 -0.953125 L 1.578125 -0.953125 L 1.421875 0 L 1.0625 0 L 1.0625 -9.015625 L 1.625 -9.015625 L 1.625 -6.75 C 1.625 -6.414062 1.617188 -6.101562 1.609375 -5.8125 L 1.59375 -5.328125 L 1.625 -5.328125 C 1.863281 -5.703125 2.148438 -5.976562 2.484375 -6.15625 C 2.828125 -6.332031 3.238281 -6.421875 3.71875 -6.421875 Z M 3.703125 -5.90625 C 2.960938 -5.90625 2.429688 -5.691406 2.109375 -5.265625 C 1.785156 -4.835938 1.625 -4.132812 1.625 -3.15625 L 1.625 -3.0625 C 1.625 -2.113281 1.789062 -1.429688 2.125 -1.015625 C 2.457031 -0.597656 2.976562 -0.390625 3.6875 -0.390625 C 4.375 -0.390625 4.890625 -0.628906 5.234375 -1.109375 C 5.585938 -1.597656 5.765625 -2.285156 5.765625 -3.171875 C 5.765625 -4.992188 5.078125 -5.90625 3.703125 -5.90625 Z M 3.703125 -5.90625 "/></g></g></g><g fill="#2b332c" fill-opacity="1"><g transform="translate(204.233945, 219.705415)"><g/></g></g><g fill="#2b332c" fill-opacity="1"><g transform="translate(207.318026, 219.705415)"><g><path d="M 1.796875 0 L 1.203125 0 L 1.203125 -8.484375 L 5.84375 -8.484375 L 5.84375 -7.9375 L 1.796875 -7.9375 L 1.796875 -4.34375 L 5.625 -4.34375 L 5.625 -3.78125 L 1.796875 -3.78125 Z M 1.796875 0 "/></g></g></g><g fill="#2b332c" fill-opacity="1"><g transform="translate(213.277492, 219.705415)"><g><path d="M 1.625 0 L 1.0625 0 L 1.0625 -6.296875 L 1.625 -6.296875 Z M 0.96875 -8.046875 C 0.96875 -8.421875 1.09375 -8.609375 1.34375 -8.609375 C 1.457031 -8.609375 1.546875 -8.5625 1.609375 -8.46875 C 1.679688 -8.375 1.71875 -8.234375 1.71875 -8.046875 C 1.71875 -7.878906 1.679688 -7.742188 1.609375 -7.640625 C 1.546875 -7.535156 1.457031 -7.484375 1.34375 -7.484375 C 1.09375 -7.484375 0.96875 -7.671875 0.96875 -8.046875 Z M 0.96875 -8.046875 "/></g></g></g><g fill="#2b332c" fill-opacity="1"><g transform="translate(215.96157, 219.705415)"><g><path d="M 5.453125 0 L 5.453125 -4.09375 C 5.453125 -4.71875 5.316406 -5.175781 5.046875 -5.46875 C 4.785156 -5.757812 4.375 -5.90625 3.8125 -5.90625 C 3.050781 -5.90625 2.492188 -5.710938 2.140625 -5.328125 C 1.796875 -4.953125 1.625 -4.335938 1.625 -3.484375 L 1.625 0 L 1.0625 0 L 1.0625 -6.296875 L 1.546875 -6.296875 L 1.65625 -5.4375 L 1.6875 -5.4375 C 2.09375 -6.09375 2.820312 -6.421875 3.875 -6.421875 C 5.300781 -6.421875 6.015625 -5.65625 6.015625 -4.125 L 6.015625 0 Z M 5.453125 0 "/></g></g></g><g fill="#2b332c" fill-opacity="1"><g transform="translate(222.964522, 219.705415)"><g><path d="M 3.359375 -6.421875 C 3.816406 -6.421875 4.210938 -6.335938 4.546875 -6.171875 C 4.878906 -6.003906 5.175781 -5.722656 5.4375 -5.328125 L 5.46875 -5.328125 C 5.445312 -5.804688 5.4375 -6.28125 5.4375 -6.75 L 5.4375 -9.015625 L 6 -9.015625 L 6 0 L 5.625 0 L 5.484375 -0.96875 L 5.4375 -0.96875 C 4.957031 -0.25 4.269531 0.109375 3.375 0.109375 C 2.5 0.109375 1.832031 -0.15625 1.375 -0.6875 C 0.914062 -1.226562 0.6875 -2.019531 0.6875 -3.0625 C 0.6875 -4.15625 0.914062 -4.988281 1.375 -5.5625 C 1.832031 -6.132812 2.492188 -6.421875 3.359375 -6.421875 Z M 3.359375 -5.90625 C 2.671875 -5.90625 2.15625 -5.660156 1.8125 -5.171875 C 1.46875 -4.691406 1.296875 -3.992188 1.296875 -3.078125 C 1.296875 -1.285156 1.988281 -0.390625 3.375 -0.390625 C 4.082031 -0.390625 4.601562 -0.597656 4.9375 -1.015625 C 5.269531 -1.429688 5.4375 -2.113281 5.4375 -3.0625 L 5.4375 -3.15625 C 5.4375 -4.132812 5.269531 -4.835938 4.9375 -5.265625 C 4.613281 -5.691406 4.085938 -5.90625 3.359375 -5.90625 Z M 3.359375 -5.90625 "/></g></g></g><g fill="#2b332c" fill-opacity="1"><g transform="translate(230.031242, 219.705415)"><g><path d="M 3.59375 0.109375 C 2.6875 0.109375 1.972656 -0.171875 1.453125 -0.734375 C 0.941406 -1.296875 0.6875 -2.085938 0.6875 -3.109375 C 0.6875 -4.109375 0.929688 -4.910156 1.421875 -5.515625 C 1.921875 -6.117188 2.59375 -6.421875 3.4375 -6.421875 C 4.175781 -6.421875 4.757812 -6.160156 5.1875 -5.640625 C 5.613281 -5.128906 5.828125 -4.425781 5.828125 -3.53125 L 5.828125 -3.078125 L 1.296875 -3.078125 C 1.296875 -2.210938 1.492188 -1.550781 1.890625 -1.09375 C 2.296875 -0.632812 2.863281 -0.40625 3.59375 -0.40625 C 3.957031 -0.40625 4.273438 -0.429688 4.546875 -0.484375 C 4.816406 -0.535156 5.160156 -0.644531 5.578125 -0.8125 L 5.578125 -0.28125 C 5.222656 -0.125 4.894531 -0.0195312 4.59375 0.03125 C 4.289062 0.0820312 3.957031 0.109375 3.59375 0.109375 Z M 3.4375 -5.921875 C 2.820312 -5.921875 2.332031 -5.71875 1.96875 -5.3125 C 1.601562 -4.914062 1.390625 -4.335938 1.328125 -3.578125 L 5.21875 -3.578125 C 5.21875 -4.304688 5.054688 -4.878906 4.734375 -5.296875 C 4.421875 -5.710938 3.988281 -5.921875 3.4375 -5.921875 Z M 3.4375 -5.921875 "/></g></g></g><g fill="#2b332c" fill-opacity="1"><g transform="translate(236.547233, 219.705415)"><g><path d="M 3.53125 -6.421875 C 3.800781 -6.421875 4.085938 -6.394531 4.390625 -6.34375 L 4.28125 -5.796875 C 4.019531 -5.859375 3.75 -5.890625 3.46875 -5.890625 C 2.925781 -5.890625 2.484375 -5.660156 2.140625 -5.203125 C 1.796875 -4.742188 1.625 -4.171875 1.625 -3.484375 L 1.625 0 L 1.0625 0 L 1.0625 -6.296875 L 1.546875 -6.296875 L 1.59375 -5.171875 L 1.640625 -5.171875 C 1.898438 -5.628906 2.175781 -5.953125 2.46875 -6.140625 C 2.757812 -6.328125 3.113281 -6.421875 3.53125 -6.421875 Z M 3.53125 -6.421875 "/></g></g></g></svg>