<svg xmlns="http://www.w3.org/2000/svg" xmlns:xlink="http://www.w3.org/1999/xlink" width="500" zoomAndPan="magnify" viewBox="0 0 375 374.999991" height="500" preserveAspectRatio="xMidYMid meet" version="1.0"><defs><g/><clipPath id="42e42d3b6d"><path d="M 126 63 L 253.523438 63 L 253.523438 238 L 126 238 Z M 126 63 " clip-rule="nonzero"/></clipPath></defs><g clip-path="url(#42e42d3b6d)"><path fill="#2b332c" d="M 253.316406 170.820312 C 253.285156 170.113281 253.179688 169.414062 253.007812 168.726562 C 252.832031 168.042969 252.59375 167.378906 252.289062 166.738281 C 251.984375 166.097656 251.621094 165.492188 251.195312 164.925781 C 250.773438 164.355469 250.296875 163.835938 249.769531 163.363281 C 249.242188 162.886719 248.671875 162.46875 248.0625 162.109375 C 247.453125 161.746094 246.8125 161.449219 246.144531 161.214844 C 245.476562 160.980469 244.789062 160.8125 244.089844 160.714844 C 243.386719 160.613281 242.679688 160.585938 241.972656 160.625 C 241.265625 160.664062 240.566406 160.773438 239.882812 160.953125 C 239.195312 161.128906 238.53125 161.375 237.894531 161.683594 C 237.257812 161.992188 236.65625 162.359375 236.089844 162.789062 C 235.523438 163.21875 235.007812 163.695312 234.535156 164.226562 C 234.066406 164.757812 233.652344 165.328125 233.296875 165.941406 C 232.9375 166.554688 232.644531 167.195312 232.414062 167.867188 C 232.1875 168.535156 232.023438 169.222656 231.929688 169.925781 C 231.835938 170.628906 231.8125 171.332031 231.855469 172.042969 C 231.898438 172.824219 231.921875 173.621094 231.921875 174.417969 C 231.921875 175.242188 231.898438 176.0625 231.847656 176.886719 C 231.800781 177.710938 231.730469 178.53125 231.632812 179.347656 C 231.535156 180.167969 231.414062 180.980469 231.269531 181.792969 C 231.125 182.605469 230.957031 183.410156 230.765625 184.210938 C 230.574219 185.011719 230.359375 185.808594 230.121094 186.597656 C 229.878906 187.382812 229.617188 188.164062 229.332031 188.9375 C 229.046875 189.710938 228.738281 190.476562 228.410156 191.230469 C 228.078125 191.984375 227.726562 192.730469 227.351562 193.464844 C 226.976562 194.199219 226.582031 194.921875 226.164062 195.632812 C 225.746094 196.34375 225.308594 197.039062 224.851562 197.726562 C 224.394531 198.410156 223.914062 199.082031 223.417969 199.738281 C 222.921875 200.394531 222.402344 201.035156 221.867188 201.664062 C 221.332031 202.289062 220.777344 202.898438 220.207031 203.492188 C 219.632812 204.085938 219.046875 204.660156 218.441406 205.21875 C 217.835938 205.78125 217.210938 206.320312 216.574219 206.84375 C 215.9375 207.363281 215.285156 207.867188 214.617188 208.351562 C 213.949219 208.835938 213.269531 209.296875 212.574219 209.742188 C 211.878906 210.183594 211.171875 210.609375 210.453125 211.007812 C 209.730469 211.410156 209 211.792969 208.257812 212.148438 C 207.515625 212.507812 206.765625 212.84375 206.003906 213.160156 C 205.242188 213.472656 204.46875 213.765625 203.691406 214.035156 C 202.910156 214.300781 202.125 214.546875 201.332031 214.769531 C 200.539062 214.992188 199.738281 215.191406 198.933594 215.367188 C 198.125 215.542969 197.316406 215.691406 196.503906 215.820312 C 195.6875 215.949219 194.871094 216.050781 194.050781 216.128906 C 193.230469 216.207031 192.40625 216.261719 191.582031 216.292969 C 190.757812 216.324219 189.933594 216.332031 189.109375 216.3125 C 188.285156 216.296875 187.464844 216.253906 186.640625 216.1875 C 185.820312 216.121094 185 216.027344 184.183594 215.914062 C 183.371094 215.800781 182.558594 215.660156 181.75 215.496094 C 180.941406 215.335938 180.136719 215.148438 179.339844 214.9375 C 178.542969 214.726562 177.753906 214.492188 176.96875 214.238281 C 176.1875 213.980469 175.414062 213.699219 174.644531 213.398438 C 173.878906 213.09375 173.121094 212.769531 172.375 212.421875 C 171.625 212.078125 170.890625 211.707031 170.164062 211.316406 C 169.4375 210.925781 168.722656 210.515625 168.023438 210.082031 C 167.320312 209.648438 166.632812 209.195312 165.957031 208.722656 C 165.285156 208.25 164.625 207.753906 163.976562 207.242188 C 163.332031 206.730469 162.703125 206.199219 162.089844 205.648438 C 161.472656 205.101562 160.875 204.535156 160.296875 203.949219 C 159.714844 203.363281 159.152344 202.761719 158.605469 202.144531 C 158.0625 201.527344 157.535156 200.894531 157.027344 200.242188 C 156.519531 199.59375 156.03125 198.929688 155.5625 198.253906 C 155.09375 197.574219 154.644531 196.882812 154.21875 196.179688 C 153.789062 195.476562 153.382812 194.757812 152.996094 194.03125 C 152.613281 193.304688 152.25 192.5625 151.90625 191.8125 C 151.566406 191.0625 151.246094 190.304688 150.949219 189.535156 C 150.652344 188.765625 150.378906 187.992188 150.125 187.207031 C 149.875 186.421875 149.648438 185.628906 149.441406 184.832031 C 149.238281 184.03125 149.058594 183.230469 148.902344 182.421875 C 148.742188 181.613281 148.609375 180.796875 148.503906 179.980469 C 148.394531 179.164062 148.308594 178.347656 148.246094 177.523438 C 148.1875 176.703125 148.152344 175.878906 148.140625 175.054688 C 148.128906 174.230469 148.140625 173.410156 148.175781 172.585938 C 148.214844 171.761719 148.273438 170.941406 148.359375 170.121094 C 148.445312 169.300781 148.554688 168.484375 148.6875 167.671875 C 148.820312 166.859375 148.976562 166.050781 149.160156 165.246094 C 149.339844 164.441406 149.542969 163.644531 149.773438 162.851562 C 150 162.0625 150.253906 161.277344 150.527344 160.5 C 150.800781 159.722656 151.097656 158.953125 151.417969 158.195312 C 151.738281 157.4375 152.082031 156.6875 152.445312 155.949219 C 152.808594 155.207031 153.195312 154.480469 153.601562 153.765625 C 154.011719 153.046875 154.4375 152.34375 154.886719 151.652344 C 155.335938 150.960938 155.804688 150.285156 156.292969 149.621094 C 156.78125 148.957031 157.289062 148.308594 157.816406 147.675781 C 158.34375 147.042969 158.890625 146.425781 159.453125 145.824219 C 160.015625 145.222656 160.597656 144.636719 161.195312 144.070312 C 161.792969 143.503906 162.40625 142.953125 163.039062 142.421875 C 163.667969 141.890625 164.3125 141.378906 164.976562 140.886719 C 165.636719 140.394531 166.308594 139.921875 167 139.46875 C 167.6875 139.015625 168.390625 138.582031 169.101562 138.171875 C 169.816406 137.761719 170.542969 137.371094 171.28125 137 C 172.015625 136.632812 172.765625 136.285156 173.523438 135.960938 C 174.28125 135.636719 175.046875 135.335938 175.824219 135.054688 C 176.597656 134.777344 177.382812 134.519531 178.171875 134.285156 C 178.960938 134.054688 179.757812 133.84375 180.5625 133.65625 C 181.363281 133.472656 182.171875 133.308594 182.984375 133.171875 C 183.796875 133.03125 184.613281 132.917969 185.433594 132.828125 C 186.253906 132.738281 187.074219 132.671875 187.898438 132.628906 C 188.722656 132.585938 189.542969 132.570312 190.367188 132.574219 C 191.195312 132.582031 192.015625 132.613281 192.839844 132.667969 C 193.660156 132.722656 194.480469 132.804688 195.300781 132.90625 C 196.117188 133.011719 196.929688 133.140625 197.742188 133.289062 C 198.550781 133.441406 199.355469 133.617188 200.15625 133.816406 C 200.957031 134.015625 201.75 134.238281 202.535156 134.484375 C 203.324219 134.730469 204.101562 135 204.875 135.292969 C 205.644531 135.585938 206.40625 135.898438 207.160156 136.234375 C 207.910156 136.574219 208.652344 136.929688 209.382812 137.3125 C 210.113281 137.691406 210.832031 138.09375 211.539062 138.519531 C 212.25 138.941406 212.941406 139.382812 213.625 139.847656 C 214.304688 140.3125 214.972656 140.796875 215.625 141.300781 C 216.277344 141.804688 216.914062 142.324219 217.535156 142.867188 C 218.15625 143.40625 218.761719 143.964844 219.351562 144.542969 C 219.941406 145.121094 220.511719 145.714844 221.066406 146.324219 C 221.617188 146.933594 222.152344 147.5625 222.671875 148.203125 C 223.1875 148.84375 223.683594 149.503906 224.164062 150.171875 C 224.570312 150.746094 225.035156 151.277344 225.546875 151.761719 C 226.058594 152.246094 226.617188 152.671875 227.214844 153.046875 C 227.8125 153.421875 228.441406 153.734375 229.101562 153.984375 C 229.761719 154.234375 230.4375 154.417969 231.132812 154.535156 C 231.828125 154.652344 232.53125 154.703125 233.234375 154.679688 C 233.941406 154.660156 234.636719 154.570312 235.324219 154.414062 C 236.011719 154.253906 236.679688 154.03125 237.320312 153.742188 C 237.964844 153.453125 238.574219 153.105469 239.148438 152.695312 C 239.726562 152.289062 240.253906 151.828125 240.738281 151.3125 C 241.222656 150.800781 241.652344 150.246094 242.027344 149.648438 C 242.402344 149.050781 242.714844 148.421875 242.964844 147.761719 C 243.214844 147.101562 243.402344 146.425781 243.519531 145.730469 C 243.636719 145.035156 243.683594 144.335938 243.664062 143.628906 C 243.644531 142.925781 243.554688 142.230469 243.398438 141.542969 C 243.238281 140.855469 243.015625 140.1875 242.726562 139.542969 C 242.4375 138.902344 242.089844 138.292969 241.679688 137.71875 C 239.425781 134.554688 236.902344 131.625 234.113281 128.929688 C 231.320312 126.230469 228.304688 123.808594 225.070312 121.660156 C 221.835938 119.515625 218.429688 117.679688 214.859375 116.15625 C 211.285156 114.632812 207.605469 113.449219 203.816406 112.597656 L 221.285156 77.167969 C 221.5625 76.605469 221.785156 76.023438 221.945312 75.414062 C 222.109375 74.808594 222.210938 74.195312 222.25 73.566406 C 222.292969 72.941406 222.273438 72.316406 222.191406 71.695312 C 222.109375 71.074219 221.96875 70.464844 221.765625 69.871094 C 221.566406 69.277344 221.308594 68.707031 220.992188 68.164062 C 220.679688 67.621094 220.316406 67.113281 219.902344 66.640625 C 219.488281 66.167969 219.03125 65.742188 218.535156 65.359375 C 218.039062 64.976562 217.507812 64.648438 216.945312 64.371094 C 216.382812 64.09375 215.796875 63.871094 215.191406 63.710938 C 214.585938 63.546875 213.96875 63.445312 213.339844 63.402344 C 212.714844 63.363281 212.089844 63.382812 211.46875 63.464844 C 210.847656 63.546875 210.238281 63.6875 209.644531 63.890625 C 209.046875 64.089844 208.480469 64.347656 207.9375 64.660156 C 207.390625 64.976562 206.882812 65.339844 206.410156 65.75 C 205.941406 66.164062 205.511719 66.621094 205.128906 67.117188 C 204.746094 67.617188 204.417969 68.144531 204.140625 68.710938 L 179.089844 112.035156 L 178.699219 112.105469 L 187.277344 78.605469 C 187.480469 77.996094 187.617188 77.375 187.695312 76.738281 C 187.769531 76.101562 187.78125 75.460938 187.730469 74.820312 C 187.675781 74.183594 187.5625 73.554688 187.382812 72.9375 C 187.203125 72.320312 186.964844 71.730469 186.664062 71.160156 C 186.367188 70.59375 186.015625 70.0625 185.609375 69.5625 C 185.203125 69.066406 184.75 68.617188 184.253906 68.210938 C 183.757812 67.804688 183.222656 67.449219 182.65625 67.152344 C 182.089844 66.851562 181.496094 66.613281 180.878906 66.433594 C 180.261719 66.253906 179.636719 66.136719 178.996094 66.085938 C 178.355469 66.03125 177.71875 66.042969 177.078125 66.117188 C 176.441406 66.195312 175.820312 66.332031 175.210938 66.535156 C 174.597656 66.734375 174.015625 66.996094 173.457031 67.3125 C 172.902344 67.632812 172.382812 68.003906 171.898438 68.425781 C 171.417969 68.851562 170.980469 69.316406 170.59375 69.828125 C 170.207031 70.339844 169.871094 70.882812 169.59375 71.460938 C 169.316406 72.039062 169.097656 72.640625 168.941406 73.261719 L 152.996094 121.988281 L 152.996094 88.773438 C 153.027344 88.136719 153 87.503906 152.90625 86.875 C 152.816406 86.242188 152.660156 85.628906 152.445312 85.03125 C 152.230469 84.429688 151.957031 83.859375 151.628906 83.316406 C 151.300781 82.769531 150.917969 82.261719 150.488281 81.792969 C 150.058594 81.328125 149.585938 80.90625 149.070312 80.53125 C 148.554688 80.15625 148.007812 79.835938 147.429688 79.570312 C 146.847656 79.308594 146.25 79.101562 145.628906 78.957031 C 145.007812 78.8125 144.382812 78.730469 143.746094 78.710938 C 143.109375 78.691406 142.476562 78.734375 141.847656 78.839844 C 141.21875 78.949219 140.609375 79.117188 140.015625 79.34375 C 139.421875 79.574219 138.855469 79.859375 138.316406 80.203125 C 137.78125 80.542969 137.28125 80.933594 136.824219 81.375 C 136.367188 81.816406 135.953125 82.300781 135.59375 82.824219 C 135.230469 83.347656 134.921875 83.902344 134.671875 84.484375 C 134.421875 85.070312 134.230469 85.675781 134.097656 86.296875 C 133.96875 86.921875 133.898438 87.550781 133.894531 88.1875 L 132.027344 148.863281 C 131.550781 149.9375 131.109375 151.023438 130.695312 152.121094 C 130.28125 153.222656 129.898438 154.332031 129.546875 155.449219 C 129.195312 156.570312 128.875 157.699219 128.585938 158.839844 C 128.296875 159.976562 128.039062 161.121094 127.816406 162.273438 C 127.589844 163.425781 127.398438 164.585938 127.234375 165.746094 C 127.074219 166.910156 126.945312 168.078125 126.851562 169.246094 C 126.753906 170.417969 126.691406 171.589844 126.660156 172.761719 C 126.628906 173.9375 126.632812 175.109375 126.664062 176.285156 C 126.699219 177.457031 126.765625 178.628906 126.867188 179.800781 C 126.964844 180.96875 127.097656 182.136719 127.261719 183.296875 C 127.425781 184.460938 127.625 185.617188 127.851562 186.769531 C 128.082031 187.921875 128.34375 189.066406 128.636719 190.203125 C 128.925781 191.339844 129.25 192.46875 129.605469 193.585938 C 129.960938 194.707031 130.347656 195.816406 130.765625 196.914062 C 131.179688 198.011719 131.628906 199.097656 132.105469 200.167969 C 132.582031 201.242188 133.089844 202.300781 133.625 203.34375 C 134.164062 204.390625 134.726562 205.417969 135.320312 206.433594 C 135.914062 207.445312 136.535156 208.441406 137.183594 209.421875 C 137.832031 210.398438 138.507812 211.359375 139.210938 212.300781 C 139.910156 213.242188 140.640625 214.164062 141.394531 215.0625 C 142.148438 215.964844 142.925781 216.84375 143.726562 217.703125 C 144.527344 218.558594 145.355469 219.394531 146.203125 220.207031 C 147.050781 221.015625 147.921875 221.804688 148.816406 222.566406 C 149.707031 223.332031 150.621094 224.070312 151.554688 224.78125 C 152.488281 225.496094 153.441406 226.179688 154.414062 226.839844 C 155.382812 227.5 156.375 228.132812 157.378906 228.738281 C 158.386719 229.34375 159.410156 229.917969 160.449219 230.464844 C 161.488281 231.015625 162.542969 231.53125 163.609375 232.023438 C 164.675781 232.511719 165.757812 232.96875 166.851562 233.398438 C 167.945312 233.828125 169.046875 234.226562 170.164062 234.597656 C 171.28125 234.964844 172.402344 235.300781 173.539062 235.605469 C 174.671875 235.910156 175.816406 236.183594 176.964844 236.425781 C 178.113281 236.667969 179.269531 236.878906 180.429688 237.054688 C 181.589844 237.234375 182.757812 237.378906 183.925781 237.492188 C 185.09375 237.605469 186.265625 237.6875 187.441406 237.734375 C 188.613281 237.78125 189.789062 237.796875 190.960938 237.78125 C 192.136719 237.761719 193.308594 237.714844 194.480469 237.628906 C 195.652344 237.546875 196.820312 237.433594 197.988281 237.285156 C 199.152344 237.136719 200.3125 236.957031 201.46875 236.746094 C 202.625 236.535156 203.773438 236.289062 204.914062 236.015625 C 206.054688 235.738281 207.1875 235.433594 208.3125 235.09375 C 209.4375 234.753906 210.554688 234.386719 211.65625 233.984375 C 212.761719 233.582031 213.855469 233.152344 214.933594 232.691406 C 216.015625 232.230469 217.082031 231.738281 218.132812 231.21875 C 219.1875 230.699219 220.222656 230.148438 221.246094 229.570312 C 222.269531 228.992188 223.273438 228.386719 224.261719 227.75 C 225.25 227.117188 226.222656 226.457031 227.171875 225.769531 C 228.125 225.082031 229.058594 224.367188 229.96875 223.625 C 230.882812 222.886719 231.773438 222.121094 232.640625 221.332031 C 233.511719 220.542969 234.359375 219.730469 235.183594 218.894531 C 236.007812 218.058594 236.808594 217.199219 237.585938 216.320312 C 238.359375 215.4375 239.113281 214.535156 239.839844 213.613281 C 240.566406 212.691406 241.265625 211.75 241.941406 210.785156 C 242.613281 209.824219 243.261719 208.84375 243.878906 207.847656 C 244.5 206.851562 245.09375 205.835938 245.65625 204.804688 C 246.21875 203.777344 246.753906 202.730469 247.257812 201.671875 C 247.761719 200.609375 248.238281 199.539062 248.683594 198.449219 C 249.128906 197.363281 249.542969 196.265625 249.929688 195.15625 C 250.3125 194.046875 250.664062 192.929688 250.988281 191.800781 C 251.308594 190.667969 251.601562 189.53125 251.859375 188.386719 C 252.117188 187.242188 252.34375 186.089844 252.539062 184.933594 C 252.734375 183.773438 252.898438 182.613281 253.027344 181.445312 C 253.15625 180.277344 253.253906 179.109375 253.320312 177.9375 C 253.382812 176.765625 253.417969 175.589844 253.417969 174.417969 C 253.417969 173.210938 253.390625 172.011719 253.316406 170.820312 Z M 253.316406 170.820312 " fill-opacity="1" fill-rule="nonzero"/></g><path fill="#00b074" d="M 190.019531 136.003906 C 187.222656 136.007812 184.457031 136.316406 181.726562 136.925781 L 186.726562 145.089844 L 176.851562 196.550781 L 190.027344 208.488281 L 203.203125 196.550781 L 193.328125 145.089844 L 198.328125 136.925781 C 195.59375 136.316406 192.824219 136.007812 190.019531 136.003906 Z M 190.019531 136.003906 " fill-opacity="1" fill-rule="nonzero"/><g fill="#00b074" fill-opacity="1"><g transform="translate(126.33984, 282.206041)"><g><path d="M 0.859375 9.203125 C -0.578125 9.203125 -1.945312 9.0625 -3.25 8.78125 L -3.25 2.625 C -2.820312 2.707031 -2.363281 2.796875 -1.875 2.890625 C -1.394531 2.992188 -0.878906 3.046875 -0.328125 3.046875 C 0.984375 3.046875 1.921875 2.648438 2.484375 1.859375 C 3.046875 1.078125 3.328125 -0.269531 3.328125 -2.1875 L 3.328125 -29.296875 L 11.28125 -29.296875 L 11.28125 -2.859375 C 11.28125 1.109375 10.410156 4.109375 8.671875 6.140625 C 6.941406 8.179688 4.335938 9.203125 0.859375 9.203125 Z M 0.859375 9.203125 "/></g></g></g><g fill="#00b074" fill-opacity="1"><g transform="translate(140.787673, 282.206041)"><g><path d="M 24.390625 -11.40625 C 24.390625 -7.6875 23.390625 -4.785156 21.390625 -2.703125 C 19.398438 -0.628906 16.601562 0.40625 13 0.40625 C 9.5625 0.40625 6.820312 -0.65625 4.78125 -2.78125 C 2.738281 -4.90625 1.71875 -7.78125 1.71875 -11.40625 C 1.71875 -15.101562 2.71875 -17.976562 4.71875 -20.03125 C 6.71875 -22.082031 9.519531 -23.109375 13.125 -23.109375 C 15.351562 -23.109375 17.320312 -22.632812 19.03125 -21.6875 C 20.75 -20.738281 22.070312 -19.378906 23 -17.609375 C 23.925781 -15.835938 24.390625 -13.769531 24.390625 -11.40625 Z M 9.6875 -11.40625 C 9.6875 -9.457031 9.945312 -7.96875 10.46875 -6.9375 C 10.988281 -5.914062 11.863281 -5.40625 13.09375 -5.40625 C 14.300781 -5.40625 15.15625 -5.914062 15.65625 -6.9375 C 16.164062 -7.96875 16.421875 -9.457031 16.421875 -11.40625 C 16.421875 -13.34375 16.164062 -14.804688 15.65625 -15.796875 C 15.144531 -16.785156 14.273438 -17.28125 13.046875 -17.28125 C 11.847656 -17.28125 10.988281 -16.785156 10.46875 -15.796875 C 9.945312 -14.816406 9.6875 -13.351562 9.6875 -11.40625 Z M 9.6875 -11.40625 "/></g></g></g><g fill="#00b074" fill-opacity="1"><g transform="translate(166.938051, 282.206041)"><g><path d="M 16.578125 -23.109375 C 19.046875 -23.109375 21.003906 -22.070312 22.453125 -20 C 23.898438 -17.925781 24.625 -15.0625 24.625 -11.40625 C 24.625 -7.71875 23.894531 -4.828125 22.4375 -2.734375 C 20.976562 -0.640625 18.941406 0.40625 16.328125 0.40625 C 15.492188 0.40625 14.75 0.3125 14.09375 0.125 C 13.4375 -0.0507812 12.847656 -0.300781 12.328125 -0.625 C 11.816406 -0.945312 11.222656 -1.476562 10.546875 -2.21875 L 10.0625 -2.21875 L 8.8125 0 L 2.703125 0 L 2.703125 -31.1875 L 10.546875 -31.1875 L 10.546875 -24.125 C 10.546875 -23.289062 10.453125 -21.84375 10.265625 -19.78125 L 10.546875 -19.78125 C 11.304688 -20.957031 12.179688 -21.804688 13.171875 -22.328125 C 14.171875 -22.847656 15.304688 -23.109375 16.578125 -23.109375 Z M 13.703125 -16.953125 C 12.609375 -16.953125 11.804688 -16.570312 11.296875 -15.8125 C 10.796875 -15.050781 10.546875 -13.851562 10.546875 -12.21875 L 10.546875 -11.125 C 10.546875 -9.269531 10.796875 -7.9375 11.296875 -7.125 C 11.804688 -6.3125 12.640625 -5.90625 13.796875 -5.90625 C 14.710938 -5.90625 15.414062 -6.375 15.90625 -7.3125 C 16.40625 -8.257812 16.65625 -9.648438 16.65625 -11.484375 C 16.65625 -15.128906 15.671875 -16.953125 13.703125 -16.953125 Z M 13.703125 -16.953125 "/></g></g></g><g fill="#2b332c" fill-opacity="1"><g transform="translate(193.324214, 282.206041)"><g><path d="M 10.578125 0 L 2.75 0 L 2.75 -22.703125 L 10.578125 -22.703125 Z M 2.546875 -28.359375 C 2.546875 -29.535156 2.875 -30.410156 3.53125 -30.984375 C 4.1875 -31.554688 5.238281 -31.84375 6.6875 -31.84375 C 8.144531 -31.84375 9.207031 -31.546875 9.875 -30.953125 C 10.550781 -30.367188 10.890625 -29.503906 10.890625 -28.359375 C 10.890625 -26.054688 9.488281 -24.90625 6.6875 -24.90625 C 3.925781 -24.90625 2.546875 -26.054688 2.546875 -28.359375 Z M 2.546875 -28.359375 "/></g></g></g><g fill="#2b332c" fill-opacity="1"><g transform="translate(206.669924, 282.206041)"><g><path d="M 16.578125 -16.828125 L 11.75 -16.828125 L 11.75 0 L 3.90625 0 L 3.90625 -16.828125 L 0.90625 -16.828125 L 0.90625 -20.6875 L 4.0625 -22.609375 L 4.0625 -22.984375 C 4.0625 -25.984375 4.671875 -28.132812 5.890625 -29.4375 C 7.117188 -30.75 9.082031 -31.40625 11.78125 -31.40625 C 12.820312 -31.40625 13.804688 -31.320312 14.734375 -31.15625 C 15.671875 -31 16.753906 -30.722656 17.984375 -30.328125 L 16.296875 -25.25 C 15.328125 -25.519531 14.382812 -25.65625 13.46875 -25.65625 C 12.863281 -25.65625 12.425781 -25.46875 12.15625 -25.09375 C 11.882812 -24.726562 11.75 -24.132812 11.75 -23.3125 L 11.75 -22.703125 L 16.578125 -22.703125 Z M 16.578125 -16.828125 "/></g></g></g><g fill="#2b332c" fill-opacity="1"><g transform="translate(223.622583, 282.206041)"><g><path d="M -0.046875 -22.703125 L 8.21875 -22.703125 L 12.0625 -9.6875 C 12.25 -9 12.378906 -8.175781 12.453125 -7.21875 L 12.609375 -7.21875 C 12.710938 -8.132812 12.875 -8.941406 13.09375 -9.640625 L 17.03125 -22.703125 L 25.03125 -22.703125 L 16.046875 1.4375 C 14.898438 4.507812 13.488281 6.679688 11.8125 7.953125 C 10.132812 9.222656 7.945312 9.859375 5.25 9.859375 C 4.207031 9.859375 3.140625 9.742188 2.046875 9.515625 L 2.046875 3.359375 C 2.753906 3.523438 3.5625 3.609375 4.46875 3.609375 C 5.164062 3.609375 5.773438 3.472656 6.296875 3.203125 C 6.816406 2.941406 7.269531 2.566406 7.65625 2.078125 C 8.039062 1.585938 8.457031 0.785156 8.90625 -0.328125 Z M -0.046875 -22.703125 "/></g></g></g><g fill="#2b332c" fill-opacity="1"><g transform="translate(119.972438, 310.083486)"><g><path d="M 3.15625 -3.84375 L 5.625 -8.484375 L 6.265625 -8.484375 L 3.4375 -3.28125 L 3.4375 0 L 2.828125 0 L 2.828125 -3.234375 L 0 -8.484375 L 0.671875 -8.484375 Z M 3.15625 -3.84375 "/></g></g></g><g fill="#2b332c" fill-opacity="1"><g transform="translate(126.239152, 310.083486)"><g><path d="M 6.265625 -3.15625 C 6.265625 -2.132812 6.015625 -1.332031 5.515625 -0.75 C 5.015625 -0.175781 4.328125 0.109375 3.453125 0.109375 C 2.898438 0.109375 2.410156 -0.0195312 1.984375 -0.28125 C 1.566406 -0.550781 1.242188 -0.9375 1.015625 -1.4375 C 0.796875 -1.9375 0.6875 -2.507812 0.6875 -3.15625 C 0.6875 -4.1875 0.9375 -4.988281 1.4375 -5.5625 C 1.9375 -6.132812 2.617188 -6.421875 3.484375 -6.421875 C 4.359375 -6.421875 5.039062 -6.128906 5.53125 -5.546875 C 6.019531 -4.960938 6.265625 -4.164062 6.265625 -3.15625 Z M 1.296875 -3.15625 C 1.296875 -2.289062 1.484375 -1.613281 1.859375 -1.125 C 2.242188 -0.644531 2.785156 -0.40625 3.484375 -0.40625 C 4.171875 -0.40625 4.707031 -0.644531 5.09375 -1.125 C 5.476562 -1.613281 5.671875 -2.289062 5.671875 -3.15625 C 5.671875 -4.03125 5.476562 -4.707031 5.09375 -5.1875 C 4.707031 -5.664062 4.164062 -5.90625 3.46875 -5.90625 C 2.769531 -5.90625 2.234375 -5.664062 1.859375 -5.1875 C 1.484375 -4.707031 1.296875 -4.03125 1.296875 -3.15625 Z M 1.296875 -3.15625 "/></g></g></g><g fill="#2b332c" fill-opacity="1"><g transform="translate(133.195726, 310.083486)"><g><path d="M 1.546875 -6.296875 L 1.546875 -2.21875 C 1.546875 -1.582031 1.679688 -1.117188 1.953125 -0.828125 C 2.222656 -0.546875 2.632812 -0.40625 3.1875 -0.40625 C 3.9375 -0.40625 4.488281 -0.59375 4.84375 -0.96875 C 5.195312 -1.351562 5.375 -1.972656 5.375 -2.828125 L 5.375 -6.296875 L 5.953125 -6.296875 L 5.953125 0 L 5.46875 0 L 5.359375 -0.875 L 5.328125 -0.875 C 4.910156 -0.21875 4.179688 0.109375 3.140625 0.109375 C 1.703125 0.109375 0.984375 -0.65625 0.984375 -2.1875 L 0.984375 -6.296875 Z M 1.546875 -6.296875 "/></g></g></g><g fill="#2b332c" fill-opacity="1"><g transform="translate(140.198678, 310.083486)"><g><path d="M 3.53125 -6.421875 C 3.800781 -6.421875 4.085938 -6.394531 4.390625 -6.34375 L 4.28125 -5.796875 C 4.019531 -5.859375 3.75 -5.890625 3.46875 -5.890625 C 2.925781 -5.890625 2.484375 -5.660156 2.140625 -5.203125 C 1.796875 -4.742188 1.625 -4.171875 1.625 -3.484375 L 1.625 0 L 1.0625 0 L 1.0625 -6.296875 L 1.546875 -6.296875 L 1.59375 -5.171875 L 1.640625 -5.171875 C 1.898438 -5.628906 2.175781 -5.953125 2.46875 -6.140625 C 2.757812 -6.328125 3.113281 -6.421875 3.53125 -6.421875 Z M 3.53125 -6.421875 "/></g></g></g><g fill="#2b332c" fill-opacity="1"><g transform="translate(144.819003, 310.083486)"><g/></g></g><g fill="#2b332c" fill-opacity="1"><g transform="translate(147.903084, 310.083486)"><g><path d="M 7.640625 -4.3125 C 7.640625 -2.894531 7.265625 -1.820312 6.515625 -1.09375 C 5.765625 -0.363281 4.671875 0 3.234375 0 L 1.203125 0 L 1.203125 -8.484375 L 3.484375 -8.484375 C 4.835938 -8.484375 5.867188 -8.128906 6.578125 -7.421875 C 7.285156 -6.710938 7.640625 -5.675781 7.640625 -4.3125 Z M 7 -4.296875 C 7 -5.515625 6.6875 -6.425781 6.0625 -7.03125 C 5.445312 -7.644531 4.539062 -7.953125 3.34375 -7.953125 L 1.796875 -7.953125 L 1.796875 -0.515625 L 3.1875 -0.515625 C 5.726562 -0.515625 7 -1.773438 7 -4.296875 Z M 7 -4.296875 "/></g></g></g><g fill="#2b332c" fill-opacity="1"><g transform="translate(156.285756, 310.083486)"><g><path d="M 3.53125 -6.421875 C 3.800781 -6.421875 4.085938 -6.394531 4.390625 -6.34375 L 4.28125 -5.796875 C 4.019531 -5.859375 3.75 -5.890625 3.46875 -5.890625 C 2.925781 -5.890625 2.484375 -5.660156 2.140625 -5.203125 C 1.796875 -4.742188 1.625 -4.171875 1.625 -3.484375 L 1.625 0 L 1.0625 0 L 1.0625 -6.296875 L 1.546875 -6.296875 L 1.59375 -5.171875 L 1.640625 -5.171875 C 1.898438 -5.628906 2.175781 -5.953125 2.46875 -6.140625 C 2.757812 -6.328125 3.113281 -6.421875 3.53125 -6.421875 Z M 3.53125 -6.421875 "/></g></g></g><g fill="#2b332c" fill-opacity="1"><g transform="translate(160.906081, 310.083486)"><g><path d="M 3.59375 0.109375 C 2.6875 0.109375 1.972656 -0.171875 1.453125 -0.734375 C 0.941406 -1.296875 0.6875 -2.085938 0.6875 -3.109375 C 0.6875 -4.109375 0.929688 -4.910156 1.421875 -5.515625 C 1.921875 -6.117188 2.59375 -6.421875 3.4375 -6.421875 C 4.175781 -6.421875 4.757812 -6.160156 5.1875 -5.640625 C 5.613281 -5.128906 5.828125 -4.425781 5.828125 -3.53125 L 5.828125 -3.078125 L 1.296875 -3.078125 C 1.296875 -2.210938 1.492188 -1.550781 1.890625 -1.09375 C 2.296875 -0.632812 2.863281 -0.40625 3.59375 -0.40625 C 3.957031 -0.40625 4.273438 -0.429688 4.546875 -0.484375 C 4.816406 -0.535156 5.160156 -0.644531 5.578125 -0.8125 L 5.578125 -0.28125 C 5.222656 -0.125 4.894531 -0.0195312 4.59375 0.03125 C 4.289062 0.0820312 3.957031 0.109375 3.59375 0.109375 Z M 3.4375 -5.921875 C 2.820312 -5.921875 2.332031 -5.71875 1.96875 -5.3125 C 1.601562 -4.914062 1.390625 -4.335938 1.328125 -3.578125 L 5.21875 -3.578125 C 5.21875 -4.304688 5.054688 -4.878906 4.734375 -5.296875 C 4.421875 -5.710938 3.988281 -5.921875 3.4375 -5.921875 Z M 3.4375 -5.921875 "/></g></g></g><g fill="#2b332c" fill-opacity="1"><g transform="translate(167.422072, 310.083486)"><g><path d="M 4.875 0 L 4.734375 -1 L 4.6875 -1 C 4.375 -0.59375 4.050781 -0.304688 3.71875 -0.140625 C 3.382812 0.0234375 2.988281 0.109375 2.53125 0.109375 C 1.90625 0.109375 1.421875 -0.046875 1.078125 -0.359375 C 0.734375 -0.671875 0.5625 -1.109375 0.5625 -1.671875 C 0.5625 -2.285156 0.816406 -2.765625 1.328125 -3.109375 C 1.847656 -3.453125 2.59375 -3.628906 3.5625 -3.640625 L 4.765625 -3.6875 L 4.765625 -4.09375 C 4.765625 -4.695312 4.640625 -5.148438 4.390625 -5.453125 C 4.148438 -5.765625 3.757812 -5.921875 3.21875 -5.921875 C 2.632812 -5.921875 2.03125 -5.753906 1.40625 -5.421875 L 1.1875 -5.921875 C 1.882812 -6.242188 2.566406 -6.40625 3.234375 -6.40625 C 3.929688 -6.40625 4.453125 -6.222656 4.796875 -5.859375 C 5.140625 -5.503906 5.3125 -4.945312 5.3125 -4.1875 L 5.3125 0 Z M 2.5625 -0.40625 C 3.238281 -0.40625 3.769531 -0.597656 4.15625 -0.984375 C 4.539062 -1.367188 4.734375 -1.90625 4.734375 -2.59375 L 4.734375 -3.203125 L 3.640625 -3.15625 C 2.753906 -3.113281 2.117188 -2.972656 1.734375 -2.734375 C 1.359375 -2.503906 1.171875 -2.144531 1.171875 -1.65625 C 1.171875 -1.257812 1.289062 -0.953125 1.53125 -0.734375 C 1.78125 -0.515625 2.125 -0.40625 2.5625 -0.40625 Z M 2.5625 -0.40625 "/></g></g></g><g fill="#2b332c" fill-opacity="1"><g transform="translate(173.711975, 310.083486)"><g><path d="M 8.921875 0 L 8.921875 -4.140625 C 8.921875 -4.753906 8.800781 -5.203125 8.5625 -5.484375 C 8.320312 -5.765625 7.957031 -5.90625 7.46875 -5.90625 C 6.820312 -5.90625 6.34375 -5.722656 6.03125 -5.359375 C 5.726562 -5.003906 5.578125 -4.445312 5.578125 -3.6875 L 5.578125 0 L 4.984375 0 L 4.984375 -4.3125 C 4.984375 -5.375 4.5 -5.90625 3.53125 -5.90625 C 2.863281 -5.90625 2.378906 -5.710938 2.078125 -5.328125 C 1.773438 -4.941406 1.625 -4.328125 1.625 -3.484375 L 1.625 0 L 1.0625 0 L 1.0625 -6.296875 L 1.53125 -6.296875 L 1.65625 -5.4375 L 1.6875 -5.4375 C 1.863281 -5.75 2.109375 -5.988281 2.421875 -6.15625 C 2.742188 -6.332031 3.097656 -6.421875 3.484375 -6.421875 C 4.484375 -6.421875 5.125 -6.050781 5.40625 -5.3125 L 5.421875 -5.3125 C 5.628906 -5.664062 5.90625 -5.9375 6.25 -6.125 C 6.59375 -6.320312 6.988281 -6.421875 7.4375 -6.421875 C 8.125 -6.421875 8.640625 -6.238281 8.984375 -5.875 C 9.328125 -5.507812 9.5 -4.925781 9.5 -4.125 L 9.5 0 Z M 8.921875 0 "/></g></g></g><g fill="#2b332c" fill-opacity="1"><g transform="translate(184.193214, 310.083486)"><g/></g></g><g fill="#2b332c" fill-opacity="1"><g transform="translate(187.277295, 310.083486)"><g><path d="M -0.1875 2.140625 C -0.539062 2.140625 -0.832031 2.085938 -1.0625 1.984375 L -1.0625 1.46875 C -0.757812 1.550781 -0.472656 1.59375 -0.203125 1.59375 C 0.734375 1.59375 1.203125 1.082031 1.203125 0.0625 L 1.203125 -8.484375 L 1.796875 -8.484375 L 1.796875 0 C 1.796875 1.425781 1.132812 2.140625 -0.1875 2.140625 Z M -0.1875 2.140625 "/></g></g></g><g fill="#2b332c" fill-opacity="1"><g transform="translate(190.210651, 310.083486)"><g><path d="M 6.265625 -3.15625 C 6.265625 -2.132812 6.015625 -1.332031 5.515625 -0.75 C 5.015625 -0.175781 4.328125 0.109375 3.453125 0.109375 C 2.898438 0.109375 2.410156 -0.0195312 1.984375 -0.28125 C 1.566406 -0.550781 1.242188 -0.9375 1.015625 -1.4375 C 0.796875 -1.9375 0.6875 -2.507812 0.6875 -3.15625 C 0.6875 -4.1875 0.9375 -4.988281 1.4375 -5.5625 C 1.9375 -6.132812 2.617188 -6.421875 3.484375 -6.421875 C 4.359375 -6.421875 5.039062 -6.128906 5.53125 -5.546875 C 6.019531 -4.960938 6.265625 -4.164062 6.265625 -3.15625 Z M 1.296875 -3.15625 C 1.296875 -2.289062 1.484375 -1.613281 1.859375 -1.125 C 2.242188 -0.644531 2.785156 -0.40625 3.484375 -0.40625 C 4.171875 -0.40625 4.707031 -0.644531 5.09375 -1.125 C 5.476562 -1.613281 5.671875 -2.289062 5.671875 -3.15625 C 5.671875 -4.03125 5.476562 -4.707031 5.09375 -5.1875 C 4.707031 -5.664062 4.164062 -5.90625 3.46875 -5.90625 C 2.769531 -5.90625 2.234375 -5.664062 1.859375 -5.1875 C 1.484375 -4.707031 1.296875 -4.03125 1.296875 -3.15625 Z M 1.296875 -3.15625 "/></g></g></g><g fill="#2b332c" fill-opacity="1"><g transform="translate(197.167225, 310.083486)"><g><path d="M 3.71875 -6.421875 C 4.59375 -6.421875 5.253906 -6.144531 5.703125 -5.59375 C 6.148438 -5.039062 6.375 -4.226562 6.375 -3.15625 C 6.375 -2.113281 6.140625 -1.304688 5.671875 -0.734375 C 5.203125 -0.171875 4.539062 0.109375 3.6875 0.109375 C 3.238281 0.109375 2.832031 0.0195312 2.46875 -0.15625 C 2.113281 -0.34375 1.832031 -0.609375 1.625 -0.953125 L 1.578125 -0.953125 L 1.421875 0 L 1.0625 0 L 1.0625 -9.015625 L 1.625 -9.015625 L 1.625 -6.75 C 1.625 -6.414062 1.617188 -6.101562 1.609375 -5.8125 L 1.59375 -5.328125 L 1.625 -5.328125 C 1.863281 -5.703125 2.148438 -5.976562 2.484375 -6.15625 C 2.828125 -6.332031 3.238281 -6.421875 3.71875 -6.421875 Z M 3.703125 -5.90625 C 2.960938 -5.90625 2.429688 -5.691406 2.109375 -5.265625 C 1.785156 -4.835938 1.625 -4.132812 1.625 -3.15625 L 1.625 -3.0625 C 1.625 -2.113281 1.789062 -1.429688 2.125 -1.015625 C 2.457031 -0.597656 2.976562 -0.390625 3.6875 -0.390625 C 4.375 -0.390625 4.890625 -0.628906 5.234375 -1.109375 C 5.585938 -1.597656 5.765625 -2.285156 5.765625 -3.171875 C 5.765625 -4.992188 5.078125 -5.90625 3.703125 -5.90625 Z M 3.703125 -5.90625 "/></g></g></g><g fill="#2b332c" fill-opacity="1"><g transform="translate(204.233945, 310.083486)"><g/></g></g><g fill="#2b332c" fill-opacity="1"><g transform="translate(207.318026, 310.083486)"><g><path d="M 1.796875 0 L 1.203125 0 L 1.203125 -8.484375 L 5.84375 -8.484375 L 5.84375 -7.9375 L 1.796875 -7.9375 L 1.796875 -4.34375 L 5.625 -4.34375 L 5.625 -3.78125 L 1.796875 -3.78125 Z M 1.796875 0 "/></g></g></g><g fill="#2b332c" fill-opacity="1"><g transform="translate(213.277492, 310.083486)"><g><path d="M 1.625 0 L 1.0625 0 L 1.0625 -6.296875 L 1.625 -6.296875 Z M 0.96875 -8.046875 C 0.96875 -8.421875 1.09375 -8.609375 1.34375 -8.609375 C 1.457031 -8.609375 1.546875 -8.5625 1.609375 -8.46875 C 1.679688 -8.375 1.71875 -8.234375 1.71875 -8.046875 C 1.71875 -7.878906 1.679688 -7.742188 1.609375 -7.640625 C 1.546875 -7.535156 1.457031 -7.484375 1.34375 -7.484375 C 1.09375 -7.484375 0.96875 -7.671875 0.96875 -8.046875 Z M 0.96875 -8.046875 "/></g></g></g><g fill="#2b332c" fill-opacity="1"><g transform="translate(215.96157, 310.083486)"><g><path d="M 5.453125 0 L 5.453125 -4.09375 C 5.453125 -4.71875 5.316406 -5.175781 5.046875 -5.46875 C 4.785156 -5.757812 4.375 -5.90625 3.8125 -5.90625 C 3.050781 -5.90625 2.492188 -5.710938 2.140625 -5.328125 C 1.796875 -4.953125 1.625 -4.335938 1.625 -3.484375 L 1.625 0 L 1.0625 0 L 1.0625 -6.296875 L 1.546875 -6.296875 L 1.65625 -5.4375 L 1.6875 -5.4375 C 2.09375 -6.09375 2.820312 -6.421875 3.875 -6.421875 C 5.300781 -6.421875 6.015625 -5.65625 6.015625 -4.125 L 6.015625 0 Z M 5.453125 0 "/></g></g></g><g fill="#2b332c" fill-opacity="1"><g transform="translate(222.964522, 310.083486)"><g><path d="M 3.359375 -6.421875 C 3.816406 -6.421875 4.210938 -6.335938 4.546875 -6.171875 C 4.878906 -6.003906 5.175781 -5.722656 5.4375 -5.328125 L 5.46875 -5.328125 C 5.445312 -5.804688 5.4375 -6.28125 5.4375 -6.75 L 5.4375 -9.015625 L 6 -9.015625 L 6 0 L 5.625 0 L 5.484375 -0.96875 L 5.4375 -0.96875 C 4.957031 -0.25 4.269531 0.109375 3.375 0.109375 C 2.5 0.109375 1.832031 -0.15625 1.375 -0.6875 C 0.914062 -1.226562 0.6875 -2.019531 0.6875 -3.0625 C 0.6875 -4.15625 0.914062 -4.988281 1.375 -5.5625 C 1.832031 -6.132812 2.492188 -6.421875 3.359375 -6.421875 Z M 3.359375 -5.90625 C 2.671875 -5.90625 2.15625 -5.660156 1.8125 -5.171875 C 1.46875 -4.691406 1.296875 -3.992188 1.296875 -3.078125 C 1.296875 -1.285156 1.988281 -0.390625 3.375 -0.390625 C 4.082031 -0.390625 4.601562 -0.597656 4.9375 -1.015625 C 5.269531 -1.429688 5.4375 -2.113281 5.4375 -3.0625 L 5.4375 -3.15625 C 5.4375 -4.132812 5.269531 -4.835938 4.9375 -5.265625 C 4.613281 -5.691406 4.085938 -5.90625 3.359375 -5.90625 Z M 3.359375 -5.90625 "/></g></g></g><g fill="#2b332c" fill-opacity="1"><g transform="translate(230.031242, 310.083486)"><g><path d="M 3.59375 0.109375 C 2.6875 0.109375 1.972656 -0.171875 1.453125 -0.734375 C 0.941406 -1.296875 0.6875 -2.085938 0.6875 -3.109375 C 0.6875 -4.109375 0.929688 -4.910156 1.421875 -5.515625 C 1.921875 -6.117188 2.59375 -6.421875 3.4375 -6.421875 C 4.175781 -6.421875 4.757812 -6.160156 5.1875 -5.640625 C 5.613281 -5.128906 5.828125 -4.425781 5.828125 -3.53125 L 5.828125 -3.078125 L 1.296875 -3.078125 C 1.296875 -2.210938 1.492188 -1.550781 1.890625 -1.09375 C 2.296875 -0.632812 2.863281 -0.40625 3.59375 -0.40625 C 3.957031 -0.40625 4.273438 -0.429688 4.546875 -0.484375 C 4.816406 -0.535156 5.160156 -0.644531 5.578125 -0.8125 L 5.578125 -0.28125 C 5.222656 -0.125 4.894531 -0.0195312 4.59375 0.03125 C 4.289062 0.0820312 3.957031 0.109375 3.59375 0.109375 Z M 3.4375 -5.921875 C 2.820312 -5.921875 2.332031 -5.71875 1.96875 -5.3125 C 1.601562 -4.914062 1.390625 -4.335938 1.328125 -3.578125 L 5.21875 -3.578125 C 5.21875 -4.304688 5.054688 -4.878906 4.734375 -5.296875 C 4.421875 -5.710938 3.988281 -5.921875 3.4375 -5.921875 Z M 3.4375 -5.921875 "/></g></g></g><g fill="#2b332c" fill-opacity="1"><g transform="translate(236.547233, 310.083486)"><g><path d="M 3.53125 -6.421875 C 3.800781 -6.421875 4.085938 -6.394531 4.390625 -6.34375 L 4.28125 -5.796875 C 4.019531 -5.859375 3.75 -5.890625 3.46875 -5.890625 C 2.925781 -5.890625 2.484375 -5.660156 2.140625 -5.203125 C 1.796875 -4.742188 1.625 -4.171875 1.625 -3.484375 L 1.625 0 L 1.0625 0 L 1.0625 -6.296875 L 1.546875 -6.296875 L 1.59375 -5.171875 L 1.640625 -5.171875 C 1.898438 -5.628906 2.175781 -5.953125 2.46875 -6.140625 C 2.757812 -6.328125 3.113281 -6.421875 3.53125 -6.421875 Z M 3.53125 -6.421875 "/></g></g></g></svg>